HIERARCHY
ROOT Hips
{
	OFFSET 	 0.0	 82.7767562866211	 -3.42842698097229
	CHANNELS 6 Xposition Yposition Zposition Xrotation Yrotation Zrotation 
	JOINT LHipJoint
	{
		OFFSET 	 0.0	 0.0	 0.0
		CHANNELS 3 Xrotation Yrotation Zrotation 
		JOINT LeftUpLeg
		{
			OFFSET 	 1.3833840739607695e-08	 9.52159583568573	 6.661737828039804e-08
			CHANNELS 3 Xrotation Yrotation Zrotation 
			JOINT LeftLeg
			{
				OFFSET 	 -5.707910588625964e-08	 37.121901512145996	 1.8232933385320393e-07
				CHANNELS 3 Xrotation Yrotation Zrotation 
				JOINT LeftFoot
				{
					OFFSET 	 -2.8894096004705716e-08	 37.903292179107666	 6.046882994326097e-09
					CHANNELS 3 Xrotation Yrotation Zrotation 
					JOINT LeftToeBase
					{
						OFFSET 	 2.6527413599097827e-08	 13.004454374313354	 -1.205770683299079e-07
						CHANNELS 3 Xrotation Yrotation Zrotation 
						End Site
						{
							OFFSET 	 0.0	 0.0	 0.0
						}
					}
				}
			}
		}
	}
	JOINT LowerBack
	{
		OFFSET 	 0.0	 8.534448742866516	 -1.7118563278017973e-06
		CHANNELS 3 Xrotation Yrotation Zrotation 
		JOINT Spine
		{
			OFFSET 	 -6.293440239720671e-16	 15.672223567962646	 -5.30786294916652e-07
			CHANNELS 3 Xrotation Yrotation Zrotation 
			JOINT Spine1
			{
				OFFSET 	 -8.787226335679009e-16	 15.124907493591309	 1.9850716626024223e-08
				CHANNELS 3 Xrotation Yrotation Zrotation 
				JOINT LeftShoulder
				{
					OFFSET 	 2.2699464857578278	 7.339215278625488	 1.5681582689285278
					CHANNELS 3 Xrotation Yrotation Zrotation 
					JOINT LeftArm
					{
						OFFSET 	 -2.069970861384718e-09	 13.603790998458862	 1.58716789711022e-10
						CHANNELS 3 Xrotation Yrotation Zrotation 
						JOINT LeftForeArm
						{
							OFFSET 	 1.2936460791479476e-08	 23.163669109344482	 -2.6309954215264497e-08
							CHANNELS 3 Xrotation Yrotation Zrotation 
							JOINT LeftHand
							{
								OFFSET 	 4.768468215843313e-06	 21.078219413757324	 8.336330736824493e-08
								CHANNELS 3 Xrotation Yrotation Zrotation 
								JOINT LThumb
								{
									OFFSET 	 0.26190444827079773	 3.5369667410850525	 1.84941366314888
									CHANNELS 3 Xrotation Yrotation Zrotation 
									End Site
									{
										OFFSET 	 0.0	 0.0	 0.0
									}
								}
								JOINT LeftFingerBase
								{
									OFFSET 	 -4.723999609268503e-06	 2.8848156332969666	 4.762068073205228e-07
									CHANNELS 3 Xrotation Yrotation Zrotation 
									JOINT LeftHandFinger1
									{
										OFFSET 	 -2.75353812639878e-06	 6.790903806686401	 -3.88968601328088e-06
										CHANNELS 3 Xrotation Yrotation Zrotation 
										End Site
										{
											OFFSET 	 0.0	 0.0	 0.0
										}
									}
								}
							}
						}
					}
				}
				JOINT Neck
				{
					OFFSET 	 0.0	 14.310184717178345	 -1.513166836275559e-07
					CHANNELS 3 Xrotation Yrotation Zrotation 
					JOINT Neck1
					{
						OFFSET 	 -5.1608641744361507e-14	 5.616583824157715	 5.539393832521e-08
						CHANNELS 3 Xrotation Yrotation Zrotation 
						JOINT Head
						{
							OFFSET 	 -1.4334930811821245e-12	 5.616592764854431	 -1.838854331026596e-06
							CHANNELS 3 Xrotation Yrotation Zrotation 
							End Site
							{
								OFFSET 	 0.0	 0.0	 0.0
							}
						}
					}
				}
				JOINT RightShoulder
				{
					OFFSET 	 -2.2699464857578278	 7.339215278625488	 1.5681582689285278
					CHANNELS 3 Xrotation Yrotation Zrotation 
					JOINT RightArm
					{
						OFFSET 	 3.627677713780031e-08	 13.603789806365967	 1.1437942953884672e-09
						CHANNELS 3 Xrotation Yrotation Zrotation 
						JOINT RightForeArm
						{
							OFFSET 	 -2.7195401486324045e-08	 23.16366672515869	 -4.628752048319029e-08
							CHANNELS 3 Xrotation Yrotation Zrotation 
							JOINT RightHand
							{
								OFFSET 	 -1.327116194715927e-10	 21.07820987701416	 -1.3437972956609201e-08
								CHANNELS 3 Xrotation Yrotation Zrotation 
								JOINT RThumb
								{
									OFFSET 	 -0.26191262528300285	 3.5369661450386047	 1.849413514137268
									CHANNELS 3 Xrotation Yrotation Zrotation 
									End Site
									{
										OFFSET 	 0.0	 0.0	 0.0
									}
								}
								JOINT RightFingerBase
								{
									OFFSET 	 4.731079172870523e-06	 2.8848156332969666	 4.4467967086347926e-07
									CHANNELS 3 Xrotation Yrotation Zrotation 
									JOINT RightHandFinger1
									{
										OFFSET 	 -2.6848201173379493e-06	 6.790900230407715	 3.930656191641901e-06
										CHANNELS 3 Xrotation Yrotation Zrotation 
										End Site
										{
											OFFSET 	 0.0	 0.0	 0.0
										}
									}
								}
							}
						}
					}
				}
			}
		}
	}
	JOINT RHipJoint
	{
		OFFSET 	 0.0	 0.0	 0.0
		CHANNELS 3 Xrotation Yrotation Zrotation 
		JOINT RightUpLeg
		{
			OFFSET 	 -1.3833840739607695e-08	 9.52159583568573	 6.661737828039804e-08
			CHANNELS 3 Xrotation Yrotation Zrotation 
			JOINT RightLeg
			{
				OFFSET 	 -6.34770724872169e-08	 37.121896743774414	 2.5993788455025424e-07
				CHANNELS 3 Xrotation Yrotation Zrotation 
				JOINT RightFoot
				{
					OFFSET 	 8.486544800234697e-09	 37.90329694747925	 -9.579663284853268e-08
					CHANNELS 3 Xrotation Yrotation Zrotation 
					JOINT RightToeBase
					{
						OFFSET 	 -6.957762366255338e-08	 13.004448413848877	 3.9166149434777253e-07
						CHANNELS 3 Xrotation Yrotation Zrotation 
						End Site
						{
							OFFSET 	 0.0	 0.0	 0.0
						}
					}
				}
			}
		}
	}
}

MOTION
Frames: 5
Frame Time: 0.013888888888888888
-0.0327837886573 0.0 -0.796695760403 -179.99999663854203 0.014563697192261436 179.99999999914556 103.66549855049388 -5.371501992054063 -95.67629348130089 15.608950024422292 71.30618343676203 68.18030775951053 22.4122810096005 1.2319167651564846e-07 0.07141708743670874 -88.70290767532676 -1.691140176308722 0.9094876391888046 -10.713498986625517 -0.29240576983294925 -5.37736180043562 -2.6281563367666547 -2.069919750210939 0.23223215599196093 3.915856886136792 -7.093538209272532e-09 -1.612624276713403e-07 -5.502807242876816 1.6915838854039029e-09 -1.755876425923205e-08 -15.156141874359491 2.7226106265811567 -90.39514952167477 62.38801763957312 23.49165046950863 -78.00751977308589 28.12911379688323 -0.0032667496497781326 1.557031818062115 -6.9467148849188405 -2.4217932004446587 -2.693692255639558 -153.3799885734933 10.576451540141347 -128.8623478453678 -1.1818968360983644 62.45487062337335 14.7109920491596 -6.43766723118801 -4.102374448447652 -25.071374075972816 26.723189754389864 1.6804601162289567 1.9533774854501502 -1.4036607949092789e-05 -9.804588378174593e-05 -1.2569730248000966e-11 -24.78545757189122 4.055096874577285e-05 1.872468899079649e-05 -23.407721363513847 7.509259731580186 90.92760387936251 27.745211341542344 -22.343522483885533 71.83874856029949 35.047114483976365 0.00023522859425128913 13.928920741294938 -4.247216718183745 -4.161791916912679 16.701619192290106 -153.37972521347135 -10.578499503264688 128.8545407789541 -1.181683179039309 -62.45489950191321 -14.710836136826787 -6.437787447351147 4.102433203878646 25.0713781621932 103.66549855049388 5.371501992054063 95.67629348130089 24.8029216715034 -69.6208535065494 -58.16367364311504 20.30875300148179 -8.844318139160071e-08 -0.08739201731903379 -85.68618939661255 -0.8933262294154992 -5.299367609376541 -10.71313248787382 0.29241052268170153 5.377299312458635
-0.558252365654 0.11805195639 -1.12342623002 -179.9999966385411 -0.04568920591044414 -179.9999999973195 103.66549855049388 -5.371501992054063 -95.67629348130089 16.22603707495017 71.6532661387756 67.87046489430264 22.119245774832304 1.218055418409543e-07 0.06551023502354884 -88.39229864443469 -1.4922109418773648 0.954032387360079 -10.713498986625517 -0.29240576983294925 -5.37736180043562 -2.6284341533100855 -2.0870369545323264 0.23515617057200489 3.9158568861370435 -7.0928750488871675e-09 -1.612494522126069e-07 -5.502807242876816 1.6915838854039029e-09 -1.755876425923205e-08 -15.155789421150239 2.7227209990010386 -90.4006280610782 62.39687531586882 23.475082908418155 -78.01867330627893 28.17707991843716 0.005312159539358568 1.4257151769571699 -6.946714884918903 -2.421793200444621 -2.6936922556395535 -153.3799885734933 10.576451540141347 -128.8623478453678 -1.1818968360983644 62.45487062337335 14.7109920491596 -6.43766723118801 -4.102374448447652 -25.071374075972816 26.721710201673183 1.6746087454108727 1.9466291530480673 -1.4036607949092789e-05 -9.804588378174593e-05 -1.2569730248000966e-11 -24.78545757189122 4.055096874577285e-05 1.872468899079649e-05 -23.406917314318623 7.510154331932369 90.92215729761335 27.672215303119977 -22.563814030023966 71.98643767420289 34.9345102023876 -0.027149414963108156 14.047962920350443 -4.247216718183772 -4.161791916912732 16.701619192290163 -153.37972521347135 -10.578499503264688 128.8545407789541 -1.181683179039309 -62.45489950191321 -14.710836136826787 -6.437787447351147 4.102433203878646 25.0713781621932 103.66549855049388 5.371501992054063 95.67629348130089 21.62484234729242 -67.87202654122814 -60.984486532090195 23.039180181208117 -9.981612786652207e-08 -0.10856778286970215 -84.56436792077034 -0.8194815971599895 -5.336085485661661 -10.71313248787382 0.29241052268170153 5.377299312458635
-1.1352540187 0.25354981866 -1.4383984678 -179.99999663853583 -0.11121738663160306 -179.99999999347506 103.66549855049388 -5.371501992054063 -95.67629348130089 16.947062946152894 72.01026328493204 67.49381281540471 21.768461165445355 1.1946189225117853e-07 0.05853859831359903 -87.97881410524663 -1.2567275500031894 0.9859032338335515 -10.713498986625517 -0.29240576983294925 -5.37736180043562 -2.628785535540971 -2.094806338902518 0.23976843115234173 3.9158568861374117 -7.092463798917433e-09 -1.6122850871996303e-07 -5.502807242876816 1.6915838854039029e-09 -1.755876425923205e-08 -15.155310947169614 2.7228687348031455 -90.4079660276568 62.39863472325888 23.470708453238945 -78.01794080734535 28.27585840628861 0.008870657650450704 1.313201006396119 -6.946714884918821 -2.4217932004446188 -2.693692255639567 -153.3799885734933 10.576451540141347 -128.8623478453678 -1.1818968360983644 62.45487062337335 14.7109920491596 -6.43766723118801 -4.102374448447652 -25.071374075972816 26.717368279025568 1.6635723712394652 1.9339441493973655 -1.4036607949092789e-05 -9.804588378174593e-05 -1.2569730248000966e-11 -24.78545757189122 4.055096874577285e-05 1.872468899079649e-05 -23.40583384851272 7.511352398370505 90.91486209313639 27.59079932087281 -22.7968514538097 72.13788851647098 34.82833056981493 -0.05363332595166945 14.15858130260206 -4.247216718183812 -4.16179191691267 16.701619192290142 -153.37972521347135 -10.578499503264688 128.8545407789541 -1.181683179039309 -62.45489950191321 -14.710836136826787 -6.437787447351147 4.102433203878646 25.0713781621932 103.66549855049388 5.371501992054063 95.67629348130089 18.7821386068883 -66.04735921761703 -63.41930029787854 25.88267226573224 -1.1154486740148642e-07 -0.1329823468450548 -83.25551582055488 -0.725933980576478 -5.391497650347507 -10.71313248787382 0.29241052268170153 5.377299312458635
-1.7462451212 0.39962926953 -1.7447239586 -179.99999663852356 -0.19050393444375968 -179.9999999888234 103.66549855049388 -5.371501992054063 -95.67629348130089 17.726493830958074 72.37439435512498 67.08173244801227 21.37895992572024 1.1793557909689486e-07 0.05082055651235264 -87.49336157742637 -0.9983474939934098 1.0086043411204262 -10.713498986625517 -0.29240576983294925 -5.37736180043562 -2.6292212073848074 -2.103380122486724 0.24545760759040253 3.915856886136898 -7.093746690854001e-09 -1.61258355869902e-07 -5.502807242876816 1.6915838854039029e-09 -1.755876425923205e-08 -15.15471512715592 2.723049529655231 -90.41694983493949 62.395523690980546 23.475707941263583 -78.00051739817278 28.420131398182356 0.009392183339081815 1.2164887536018543 -6.946714884918858 -2.421793200444667 -2.6936922556395637 -153.3799885734933 10.576451540141347 -128.8623478453678 -1.1818968360983644 62.45487062337335 14.7109920491596 -6.43766723118801 -4.102374448447652 -25.071374075972816 26.716499186962505 1.6560390673025382 1.9252264980075942 -1.4036607949092789e-05 -9.804588378174593e-05 -1.2569730248000966e-11 -24.78545757189122 4.055096874577285e-05 1.872468899079649e-05 -23.40449715556684 7.512819000365264 90.9059305845124 27.504440348152194 -23.0376127690523 72.28976485502683 34.727454552211675 -0.07928534796221161 14.263463022645 -4.247216718183812 -4.161791916912732 16.701619192290135 -153.37972521347135 -10.578499503264688 128.8545407789541 -1.181683179039309 -62.45489950191321 -14.710836136826787 -6.437787447351147 4.102433203878646 25.0713781621932 103.66549855049388 5.371501992054063 95.67629348130089 16.267609425658875 -64.16951868522641 -65.4896664191815 28.78778056407411 -1.2311524657841484e-07 -0.1601923041568733 -81.8113102722658 -0.6203695939823156 -5.458848473271188 -10.71313248787382 0.29241052268170153 5.377299312458635
-2.37368204655 0.54942599167 -2.04551418726 -179.99999662741305 -4.65592482398993 -179.99999972624101 103.66549855049388 -5.371501992054063 -95.67629348130089 3.7946648733597153 73.85604249318317 80.91853904897214 20.969779720028722 1.1560408732026549e-07 0.04268723831267808 -86.96684931722083 -0.7307227007726637 1.0259252924633395 -10.713498986625517 -0.29240576983294925 -5.37736180043562 -2.644866743060417 -6.482185441678034 0.05029500089809708 3.915856886137507 -7.092304731083628e-09 -1.612210628898152e-07 -5.502807242876816 1.6915838854039029e-09 -1.755876425923205e-08 -15.154010472916344 2.723259111830246 -90.42736591284985 62.38976133795738 23.487258830429866 -77.96159273398015 28.604591538898426 0.008904409735523163 1.1325819734704896 -6.9467148849188725 -2.4217932004446463 -2.6936922556396015 -153.3799885734933 10.576451540141347 -128.8623478453678 -1.1818968360983644 62.45487062337335 14.7109920491596 -6.43766723118801 -4.102374448447652 -25.071374075972816 26.71333717769503 1.6443680987944918 1.911767621320741 -1.4036607949092789e-05 -9.804588378174593e-05 -1.2569730248000966e-11 -24.78545757189122 4.055096874577285e-05 1.872468899079649e-05 -23.402933256986426 7.51451924012446 90.89557507784994 27.416575198543306 -23.2810470254598 72.43875019866893 34.63076401751173 -0.1041899011885252 14.3652937811812 -4.2472167181837825 -4.161791916912686 16.701619192290096 -153.37972521347135 -10.578499503264688 128.8545407789541 -1.181683179039309 -62.45489950191321 -14.710836136826787 -6.437787447351147 4.102433203878646 25.0713781621932 103.66549855049388 5.371501992054063 95.67629348130089 22.34778937072383 -60.66133928737199 -59.01491260423678 31.701925328941332 -1.3428118919882172e-07 -0.18941848834649894 -80.28355371536199 -0.5100265292697632 -5.5308684195673825 -10.71313248787382 0.29241052268170153 5.377299312458635
